<?xml version="1.0" encoding="utf-8"?>
<!-- Generator: Adobe Illustrator 15.0.0, SVG Export Plug-In . SVG Version: 6.00 Build 0)  -->
<!DOCTYPE svg PUBLIC "-//W3C//DTD SVG 1.1//EN" "http://www.w3.org/Graphics/SVG/1.1/DTD/svg11.dtd">
<svg version="1.1"
	 id="Layer_1"
	 xmlns="http://www.w3.org/2000/svg"
	 xmlns:xlink="http://www.w3.org/1999/xlink"
	 x="0px"
	 y="0px"
	 width="100%"
	 height="100%"
	 min-height="27px"
	 viewBox="0 0 77.208 76.188"
	 enable-background="new 0 0 77.208 76.188"
	 xml:space="preserve">
	<g id="XMLID_13_">
		<path id="XMLID_139_" fill="#0D7E37" d="M14.74,55.688c0-18.588,0-37.107,0-55.688c14.05,0,28.058,0,42.185,0
			c0.018,0.318,0.06,0.657,0.06,0.996c0.002,13.507-0.007,27.01,0.021,40.516c0.002,0.877-0.229,1.17-1.125,1.15
			c-2.408-0.055-4.817-0.021-7.227-0.021c-0.043,0.111-0.087,0.223-0.128,0.33c3.661,4.203,7.325,8.4,11.091,12.717
			C44.585,55.688,29.718,55.688,14.74,55.688z M16.923,40.78c0.913,0,1.741,0.008,2.565,0c11.375-0.09,22.752-0.186,34.127-0.256
			c0.831-0.008,1.174-0.178,1.172-1.121c-0.033-12.055-0.021-24.106-0.024-36.161c0-0.339-0.042-0.674-0.068-1.079
			c-0.498,0-0.881,0-1.263,0c-11.73,0-23.463,0-35.193,0c-1.313,0-1.315,0.004-1.315,1.303c-0.003,12.021,0,24.043,0,36.066
			C16.923,39.913,16.923,40.292,16.923,40.78z M16.923,53.452c12.632,0,25.106,0,37.679,0c-0.124-0.207-0.172-0.326-0.25-0.414
			c-2.864-3.275-5.72-6.555-8.617-9.801c-0.25-0.277-0.775-0.439-1.172-0.439c-4.865,0.029-9.73,0.113-14.596,0.154
			C26.1,42.985,22.233,42.985,18.367,43c-1.443,0.008-1.443,0.014-1.443,1.498c-0.003,2.191,0,4.383,0,6.574
			C16.923,51.838,16.923,52.608,16.923,53.452z"/>
		<path id="XMLID_136_" fill="#0D7E37" d="M77.208,76.188c-12.313,0-24.479,0-36.726,0c0-5.66,0-11.307,0-17.021
			c0.336-0.021,0.647-0.053,0.96-0.053c6.831-0.006,13.665,0.008,20.497-0.018c0.646,0,1.067,0.199,1.473,0.691
			c1.369,1.67,2.783,3.299,4.179,4.949c0.157,0.186,0.292,0.393,0.581,0.781c-7.193,0-14.193,0-21.233,0c0,1.303,0,2.453,0,3.693
			c0.479,0.029,0.92,0.078,1.36,0.078c7.252,0.006,14.504,0.014,21.757-0.012c0.773-0.004,1.308,0.207,1.819,0.811
			c1.522,1.791,3.112,3.527,4.674,5.285C76.754,75.606,76.938,75.854,77.208,76.188z M64.106,63.512
			c-0.771-0.941-1.4-1.654-1.959-2.418c-0.381-0.521-0.813-0.717-1.462-0.711c-6.155,0.02-12.312,0.027-18.465-0.01
			c-0.879-0.004-1.09,0.299-1.081,1.117c0.035,3.545,0.035,7.092,0,10.637c-0.009,0.818,0.202,1.121,1.079,1.117
			c9.766-0.029,19.532-0.018,29.296-0.021c0.295,0,0.592-0.037,1.092-0.07c-0.505-0.588-0.91-0.963-1.195-1.414
			c-0.631-0.996-1.514-1.174-2.631-1.166c-7.766,0.041-15.532,0.02-23.301,0.02c-0.375,0-0.75-0.041-1.115-0.061
			c0-2.371,0-4.637,0-7.02C50.895,63.512,57.35,63.512,64.106,63.512z"/>
		<path id="XMLID_133_" fill="#0D7E37" d="M35.281,76.184c-11.761,0-23.446,0-35.274,0c0-1.24-0.024-2.48,0.023-3.723
			c0.008-0.242,0.265-0.5,0.455-0.707c3.873-4.184,7.743-8.373,11.647-12.525c0.278-0.299,0.831-0.484,1.253-0.48
			c7.055,0.104,14.106,0.256,21.162,0.369c0.658,0.008,0.82,0.26,0.811,0.859c-0.027,1.447-0.04,2.898,0.004,4.346
			c0.022,0.713-0.203,0.947-0.932,0.947c-5.25,0.021-10.5,0.1-15.752,0.113c-0.763,0-1.248,0.227-1.67,0.848
			c-0.629,0.93-1.338,1.803-2.163,2.898c0.542,0.025,0.897,0.053,1.253,0.053c6.059,0.014,12.115,0.037,18.172,0.014
			c0.835-0.004,1.133,0.215,1.1,1.078c-0.066,1.643-0.017,3.289-0.023,4.93C35.344,75.518,35.305,75.829,35.281,76.184z
			M34.439,63.36c0-0.947-0.032-1.744,0.013-2.543c0.037-0.662-0.256-0.811-0.855-0.811c-6.51,0.012-13.02,0-19.526,0.033
			c-0.381,0-0.879,0.248-1.123,0.541C9.543,64.704,6.174,68.856,2.8,73.008c-0.161,0.199-0.281,0.434-0.466,0.725
			c10.781,0,21.396,0,32.107,0c0-0.906,0-1.738,0-2.568c-0.003-1.275-0.003-1.275-1.25-1.275c-7.313-0.004-14.627-0.004-21.943-0.004
			c-0.365,0-0.733,0-1.361,0c1.908-2.092,3.635-3.949,5.315-5.848c0.446-0.504,0.907-0.693,1.58-0.689
			c5.446,0.023,10.891,0.012,16.337,0.012C33.5,63.36,33.883,63.36,34.439,63.36z"/>
		<path id="XMLID_14_" fill="#E2161B" d="M38.424,12.911c0,3.627,0,7.158,0,10.698c0.909,0.306,1.459,0.058,1.984-0.699
			c3.314-4.747,6.675-9.466,10.145-14.143c-0.085,0.198-0.155,0.405-0.256,0.6c-3.58,6.803-7.172,13.597-10.73,20.412
			c-0.33,0.633-0.703,0.869-1.412,0.832c-1.151-0.063-2.308-0.017-3.734-0.017c0-1.191,0.006-2.304-0.002-3.416
			c-0.01-1.48-0.012-2.961-0.068-4.441c-0.012-0.331-0.258-0.931-0.363-0.923c-0.431,0.033-0.995,0.124-1.25,0.418
			c-1.538,1.774-3.004,3.614-4.494,5.434c-2.143,2.61-4.287,5.224-6.549,7.771c0.145-0.286,0.283-0.571,0.438-0.849
			c3.996-7.166,8-14.325,11.975-21.5c0.331-0.6,0.635-0.823,1.34-0.649C36.379,12.671,37.346,12.75,38.424,12.911z"/>
	</g>
</svg>